<svg width="380" height="777" viewBox="0 0 380 777" fill="none" xmlns="http://www.w3.org/2000/svg">
<circle cx="3.5" cy="3.5" r="3.5" transform="matrix(-1 0 0 1 47 482)" fill="#E77E42"/>
<circle cx="327.5" cy="68.5" r="3.5" fill="#1BEAFF"/>
<circle cx="3.5" cy="3.5" r="3.5" transform="matrix(-1 0 0 1 73 273)" fill="#E77E42"/>
<circle cx="303.5" cy="676.5" r="3.5" fill="#E77E42"/>
<circle cx="184.5" cy="60.5" r="2.5" fill="white"/>
<circle cx="2.5" cy="2.5" r="2.5" transform="matrix(-1 0 0 1 302 253)" fill="white"/>
<circle cx="73.5" cy="655.5" r="2.5" fill="white"/>
<circle cx="263.5" cy="52.5" r="2.5" fill="white"/>
<circle cx="2.5" cy="2.5" r="2.5" transform="matrix(-1 0 0 1 118 233)" fill="white"/>
<circle cx="293.5" cy="149.5" r="2.5" fill="white"/>
<circle cx="2.5" cy="2.5" r="2.5" transform="matrix(-1 0 0 1 24 321)" fill="white"/>
<circle cx="218.5" cy="133.5" r="3.5" fill="#E77E42"/>
<circle cx="3.5" cy="3.5" r="3.5" transform="matrix(-1 0 0 1 144 619)" fill="#E77E42"/>
<circle cx="34.5" cy="161.5" r="3.5" fill="#1BEAFF"/>
<circle cx="28.5" cy="751.5" r="3.5" fill="#1BEAFF"/>
<circle cx="217.5" cy="215.5" r="2.5" fill="#1BEAFF"/>
<circle cx="111" cy="62" r="1" fill="white"/>
<circle cx="1" cy="1" r="1" transform="matrix(-1 0 0 1 291 323)" fill="white"/>
<circle cx="83" cy="724" r="1" fill="white"/>
<circle cx="204" cy="1" r="1" fill="white"/>
<circle cx="1" cy="1" r="1" transform="matrix(-1 0 0 1 364 400)" fill="white"/>
<circle cx="292" cy="717" r="1" fill="white"/>
<circle cx="1" cy="1" r="1" transform="matrix(-1 0 0 1 355 350)" fill="white"/>
<circle cx="1" cy="1" r="1" transform="matrix(-1 0 0 1 248 582)" fill="white"/>
<circle cx="155" cy="222" r="1" fill="white"/>
<circle cx="1" cy="1" r="1" transform="matrix(-1 0 0 1 219 621)" fill="white"/>
<circle cx="170" cy="211" r="1" fill="white"/>
<circle cx="1" cy="1" r="1" transform="matrix(-1 0 0 1 204 610)" fill="white"/>
<circle cx="69" cy="127" r="1" fill="white"/>
<circle cx="1" cy="1" r="1" transform="matrix(-1 0 0 1 349 526)" fill="white"/>
<circle cx="1" cy="1" r="1" transform="matrix(-1 0 0 1 74 511)" fill="white"/>
<circle cx="1" cy="1" r="1" transform="matrix(-1 0 0 1 2 565)" fill="white"/>
<circle cx="1" cy="1" r="1" transform="matrix(-1 0 0 1 161 257)" fill="white"/>
<circle cx="238" cy="181" r="1" fill="white"/>
<circle cx="1" cy="1" r="1" transform="matrix(-1 0 0 1 136 580)" fill="white"/>
<circle cx="1" cy="1" r="1" transform="matrix(-1 0 0 1 129 379)" fill="white"/>
<circle cx="1" cy="1" r="1" transform="matrix(-1 0 0 1 160 375)" fill="white"/>
<circle cx="214" cy="776" r="1" fill="white"/>
<circle cx="1" cy="1" r="1" transform="matrix(-1 0 0 1 260 377)" fill="white"/>
<circle cx="1" cy="1" r="1" transform="matrix(-1 0 0 1 370 317)" fill="white"/>
<circle cx="1" cy="1" r="1" transform="matrix(-1 0 0 1 380 299)" fill="white"/>
<circle cx="1" cy="1" r="1" transform="matrix(-1 0 0 1 128 328)" fill="white"/>
<circle cx="1" cy="1" r="1" transform="matrix(-1 0 0 1 227 330)" fill="white"/>
<circle cx="71" cy="45" r="1" fill="white"/>
<circle cx="69" cy="185" r="1" fill="white"/>
<circle cx="1" cy="1" r="1" transform="matrix(-1 0 0 1 305 584)" fill="white"/>
<circle cx="1" cy="1" r="1" transform="matrix(-1 0 0 1 243 396)" fill="white"/>
<circle cx="82" cy="776" r="1" fill="white"/>
<circle cx="79" cy="702" r="1" fill="white"/>
<circle cx="1" cy="1" r="1" transform="matrix(-1 0 0 1 323 274)" fill="white"/>
<circle cx="222" cy="35" r="1" fill="white"/>
<circle cx="262" cy="99" r="1" fill="white"/>
<circle cx="1" cy="1" r="1" transform="matrix(-1 0 0 1 133 505)" fill="white"/>
<circle cx="1" cy="1" r="1" transform="matrix(-1 0 0 1 118 281)" fill="white"/>
<circle cx="256" cy="682" r="1" fill="white"/>
<circle cx="295.5" cy="198.5" r="2.5" fill="white"/>
<circle cx="2.5" cy="2.5" r="2.5" transform="matrix(-1 0 0 1 61 592)" fill="white"/>
<circle cx="150" cy="101" r="1" fill="white"/>
<circle cx="1" cy="1" r="1" transform="matrix(-1 0 0 1 224 500)" fill="white"/>
<circle cx="1" cy="1" r="1" transform="matrix(-1 0 0 1 220 267)" fill="white"/>
<circle cx="191" cy="143" r="1" fill="white"/>
<circle cx="1" cy="1" r="1" transform="matrix(-1 0 0 1 189 542)" fill="white"/>
<circle cx="1" cy="1" r="1" transform="matrix(-1 0 0 1 195 325)" fill="white"/>
<circle cx="185" cy="726" r="1" fill="white"/>
<circle cx="345" cy="16" r="1" fill="white"/>
<circle cx="367" cy="87" r="1" fill="white"/>
<circle cx="355" cy="670" r="1" fill="white"/>
<circle cx="1" cy="1" r="1" transform="matrix(-1 0 0 1 228 467)" fill="white"/>
<circle cx="297" cy="58" r="1" fill="white"/>
<circle cx="1" cy="1" r="1" transform="matrix(-1 0 0 1 49 223)" fill="white"/>
<circle cx="331" cy="774" r="1" fill="white"/>
<circle cx="316" cy="164" r="1" fill="white"/>
<circle cx="149" cy="28" r="1" fill="white"/>
<circle cx="139" cy="146" r="1" fill="white"/>
<circle cx="1" cy="1" r="1" transform="matrix(-1 0 0 1 235 545)" fill="white"/>
<circle cx="284" cy="3" r="1" fill="white"/>
<circle cx="332" cy="129" r="1" fill="white"/>
<circle cx="1" cy="1" r="1" transform="matrix(-1 0 0 1 93 554)" fill="white"/>
<circle cx="1" cy="1" r="1" transform="matrix(-1 0 0 1 48 311)" fill="white"/>
</svg>
